{"title":"A.Single.Man.2009.X264.AC3(5.1)Multi_SUB.mkv.Zen_Bud","uid":5617236,"size":950153955,"categoryP":"video","categoryS":"movies","magnet":"?xt=urn:btih:967791ed3fb4764b909878c610739cfc77a91b13&amp;dn=A.Single.Man.2009.X264.AC3%285.1%29Multi_SUB.mkv.Zen_Bud&amp;tr=udp%3A%2F%2Ftracker.openbittorrent.com%3A80&amp;tr=udp%3A%2F%2Fopen.demonii.com%3A1337&amp;tr=udp%3A%2F%2Ftracker.coppersurfer.tk%3A6969&amp;tr=udp%3A%2F%2Fexodus.desync.com%3A6969","seeders":1,"leechers":0,"uploader":"Zen_Bud","files":-1,"time":1276112704,"description":"General\nComplete name                    : A.Single.Man.mkv\nFormat                           : Matroska\nFile size                        : 906 MiB\nDuration                         : 1h 36mn\nOverall bit rate                 : 1 316 Kbps\nWriting application              : HandBrake 0.9.4\n\nVideo\nID                               : 1\nFormat                           : AVC\nDuration                         : 1h 36mn\nBit rate                         : 851 Kbps\nWidth                            : 720 pixels\nHeight                           : 428 pixels\nDisplay aspect ratio             : 2.35:1\nStream size                      : 580 MiB (64%)\nWriting library                  : x264 core 79\n\nAudio\n\nFormat                           : AC-3\nDuration                         : 1h 36mn\nBit rate                         : 448 Kbps\nChannel(s)                       : 6 channels\nChannel positions                : Front: L C R, Side: L R, LFE\nSampling rate                    : 48.0 KHz\nStream size                      : 308 MiB (34%)\nLanguage                         : English\n\nText #1\nLanguage                         : Swedish\n\nText #2\nLanguage                         : Danish\n\nText #3\nLanguage                         : Norwegian\n\nText #4\nLanguage                         : Finnish\n\nText #5\nLanguage                         : Icelandic\n\n","torrent":{"xt":"urn:btih:967791ed3fb4764b909878c610739cfc77a91b13","amp;dn":"A.Single.Man.2009.X264.AC3%285.1%29Multi_SUB.mkv.Zen_Bud","amp;tr":["udp%3A%2F%2Ftracker.openbittorrent.com%3A80","udp%3A%2F%2Fopen.demonii.com%3A1337","udp%3A%2F%2Ftracker.coppersurfer.tk%3A6969","udp%3A%2F%2Fexodus.desync.com%3A6969"],"infoHash":"967791ed3fb4764b909878c610739cfc77a91b13","infoHashBuffer":{"type":"Buffer","data":[150,119,145,237,63,180,118,75,144,152,120,198,16,115,156,252,119,169,27,19]},"announce":[],"urlList":[]}}